<?xml version="1.0" encoding="UTF-8"?>
<svg xmlns="http://www.w3.org/2000/svg" xmlns:xlink="http://www.w3.org/1999/xlink" viewBox="0 0 100 100" width="100px" height="100px">
<g id="surface2732604">
<path style=" stroke:none;fill-rule:nonzero;fill:rgb(100%,100%,100%);fill-opacity:1;" d="M 20 13.332031 C 16.316406 13.332031 13.332031 16.316406 13.332031 20 L 13.332031 80 C 13.332031 83.683594 16.316406 86.667969 20 86.667969 L 80 86.667969 C 83.683594 86.667969 86.667969 83.683594 86.667969 80 L 86.667969 20 C 86.667969 16.316406 83.683594 13.332031 80 13.332031 Z M 58.332031 36.667969 L 66.855469 36.667969 C 67.777344 36.667969 68.523438 37.414062 68.523438 38.332031 C 68.523438 39.253906 67.777344 40 66.855469 40 L 58.332031 40 C 57.414062 40 56.667969 39.253906 56.667969 38.332031 C 56.667969 37.414062 57.414062 36.667969 58.332031 36.667969 Z M 29.734375 37.949219 L 39.015625 37.949219 C 44.496094 37.949219 47.765625 40.628906 47.765625 44.992188 C 47.765625 47.988281 45.554688 50.597656 42.65625 51.027344 L 42.65625 51.378906 C 46.394531 51.652344 49.113281 54.472656 49.113281 58.113281 C 49.117188 63.0625 45.378906 66.199219 39.347656 66.199219 L 29.734375 66.199219 C 28.039062 66.199219 26.667969 64.824219 26.667969 63.132812 L 26.667969 41.015625 C 26.667969 39.324219 28.039062 37.949219 29.734375 37.949219 Z M 32.578125 42.46875 L 32.578125 49.65625 L 37.019531 49.65625 C 40.210938 49.660156 41.953125 48.34375 41.953125 46.074219 C 41.953125 43.824219 40.332031 42.46875 37.511719 42.46875 Z M 63.210938 44.132812 C 69.574219 44.132812 73.328125 48.1875 73.328125 55.039062 L 73.328125 56.777344 L 58.515625 56.777344 L 58.515625 57.070312 C 58.59375 60.28125 60.472656 62.277344 63.449219 62.277344 C 65.699219 62.277344 67.246094 61.480469 67.851562 60.050781 L 73.15625 60.050781 C 72.296875 64.125 68.574219 66.667969 63.289062 66.667969 C 56.710938 66.667969 52.839844 62.515625 52.839844 55.507812 C 52.839844 48.480469 56.789062 44.132812 63.210938 44.132812 Z M 63.234375 48.503906 C 60.59375 48.503906 58.726562 50.339844 58.535156 53.136719 L 67.734375 53.136719 C 67.613281 50.28125 65.894531 48.503906 63.234375 48.503906 Z M 32.578125 53.652344 L 32.578125 61.679688 L 37.84375 61.679688 C 41.25 61.679688 43.09375 60.246094 43.09375 57.605469 C 43.09375 55.015625 41.191406 53.652344 37.707031 53.652344 Z M 32.578125 53.652344 "/>
</g>
</svg>
