<?xml version="1.0" encoding="UTF-8"?>
<svg xmlns="http://www.w3.org/2000/svg" xmlns:xlink="http://www.w3.org/1999/xlink" viewBox="0 0 100 100" width="100px" height="100px">
<g id="surface2722110">
<path style=" stroke:none;fill-rule:nonzero;fill:rgb(100%,100%,100%);fill-opacity:1;" d="M 50 10 C 27.910156 10 10 27.910156 10 50 C 10 68.742188 22.90625 84.425781 40.308594 88.765625 C 40.121094 88.226562 40 87.601562 40 86.824219 L 40 79.988281 C 38.375 79.988281 35.65625 79.988281 34.972656 79.988281 C 32.238281 79.988281 29.804688 78.808594 28.625 76.625 C 27.3125 74.191406 27.085938 70.476562 23.839844 68.203125 C 22.875 67.445312 23.609375 66.582031 24.71875 66.699219 C 26.769531 67.28125 28.46875 68.6875 30.070312 70.773438 C 31.664062 72.863281 32.414062 73.335938 35.390625 73.335938 C 36.832031 73.335938 38.992188 73.253906 41.027344 72.933594 C 42.121094 70.15625 44.011719 67.601562 46.320312 66.394531 C 33 65.023438 26.644531 58.398438 26.644531 49.398438 C 26.644531 45.527344 28.292969 41.78125 31.097656 38.625 C 30.175781 35.488281 29.019531 29.101562 31.449219 26.667969 C 37.441406 26.667969 41.066406 30.554688 41.9375 31.601562 C 44.921875 30.578125 48.203125 30 51.648438 30 C 55.101562 30 58.398438 30.578125 61.390625 31.609375 C 62.25 30.566406 65.875 26.667969 71.882812 26.667969 C 74.324219 29.101562 73.152344 35.519531 72.222656 38.648438 C 75.011719 41.796875 76.648438 45.535156 76.648438 49.398438 C 76.648438 58.390625 70.304688 65.011719 57.003906 66.390625 C 60.664062 68.300781 63.332031 73.667969 63.332031 77.710938 L 63.332031 86.824219 C 63.332031 87.171875 63.257812 87.421875 63.214844 87.714844 C 78.804688 82.253906 90 67.453125 90 50 C 90 27.910156 72.089844 10 50 10 Z M 50 10 "/>
</g>
</svg>
