<?xml version="1.0" encoding="UTF-8"?>
<svg xmlns="http://www.w3.org/2000/svg" xmlns:xlink="http://www.w3.org/1999/xlink" viewBox="0 0 100 100" width="100px" height="100px">
<g id="surface2698403">
<path style=" stroke:none;fill-rule:nonzero;fill:rgb(100%,100%,100%);fill-opacity:1;" d="M 50 10 C 27.910156 10 10 27.910156 10 50 C 10 72.089844 27.910156 90 50 90 C 72.089844 90 90 72.089844 90 50 C 90 27.910156 72.089844 10 50 10 Z M 34.988281 28.011719 C 37.792969 28.011719 39.664062 29.878906 39.664062 32.375 C 39.664062 34.867188 37.792969 36.738281 34.675781 36.738281 C 31.871094 36.738281 30 34.867188 30 32.375 C 30 29.878906 31.871094 28.011719 34.988281 28.011719 Z M 40 66.667969 L 30 66.667969 L 30 40 L 40 40 Z M 73.332031 66.667969 L 63.921875 66.667969 L 63.921875 52.09375 C 63.921875 48.0625 61.410156 47.132812 60.46875 47.132812 C 59.53125 47.132812 56.390625 47.753906 56.390625 52.09375 C 56.390625 52.714844 56.390625 66.667969 56.390625 66.667969 L 46.667969 66.667969 L 46.667969 40 L 56.394531 40 L 56.394531 43.71875 C 57.648438 41.550781 60.15625 40 64.863281 40 C 69.570312 40 73.332031 43.71875 73.332031 52.09375 Z M 73.332031 66.667969 "/>
</g>
</svg>
